<svg xmlns="http://www.w3.org/2000/svg" width="42" height="42" viewBox="0 0 42 42">
  <title>Perinatal App V6</title>
  <g>
    <path d="M6.61469,13.61216a10.9429,10.9429,0,0,0,1.75222,5.303c1.15109,1.78131,3.6144,2.19351,5.23449,2.98388,2.25825.684,2.125.26617,3.18744.3992q1.08746-.08262,2.17515-.16526c4.92554-.14416,8.24662-4.46805,8.66863-9.307A11.71292,11.71292,0,0,0,26.04,5.58612c-1.44013-2.22693-2.41093-2.625-4.97433-3.85309C16.42187.73244,13.38222,1.00851,10.09539,3.3939a9.26682,9.26682,0,0,0-2.82088,4.006c-.84382,2.16083-.68176,3.83532-.65982,6.21225" fill="#7bc248" fill-rule="evenodd"/>
    <path d="M15.86817,22.29825c-.023,1.3774-.4198,4.80529.26243,5.7302l1.86681.678c.54793-.731.01973-2.46375.01416-3.543a20.9827,20.9827,0,0,0-.12408-3.03019c.31954-1.38259-.37588-2.27148.37144-3.76823l3.62826-7.379c.74023-1.58542-.32465-2.24573-1.31873-.367-.3168.59847-.4964.96919-.8705,1.59545-.37121.6211-.54,1.02326-.86609,1.60042l-.80824,1.31629c-.02622.0356-.075.09381-.09693.12273-.02218.02912-.065.08329-.09989.12294-.04092-2.0955-.04453-8.24751-.22592-8.65033a.92826.92826,0,0,0-.71332-.48113.54493.54493,0,0,0-.54341.42225c-.26306,1.10764-.02168,7.11595-.39358,9.91576l-3.64529-5.009c-.42134-.62936-.74555-1.56211-1.64835-1.02031-.68463.64085,1.9972,4.37633,2.7656,5.5907,1.87943,2.97114,2.77075,3.60277,2.44563,6.15341" fill="#f1ffe5" fill-rule="evenodd"/>
    <polygon points="5.33 28.84 6.959 28.84 9.186 33.237 11.428 28.84 13.057 28.84 13.057 35.992 11.428 35.999 11.428 32.031 9.186 36.15 6.959 32.031 6.959 35.999 5.33 35.999 5.33 28.84" fill="#545454" fill-rule="evenodd"/>
    <g>
      <path d="M21.99026,37.88968l-.07779.149-.10365.20087a.64464.64464,0,0,0-.10365.29808.22787.22787,0,0,0,.00644.06481.21839.21839,0,0,0,.162.04528,1.31889,1.31889,0,0,0,.40173-.25913l.36933-.33048a2.05519,2.05519,0,0,1,.90068-.50538.8956.8956,0,0,1,.27211.0324.50217.50217,0,0,1,.11991.03557.78221.78221,0,0,1,.11991.07452.36468.36468,0,0,1,.14893.31106.92122.92122,0,0,0,.013.17817.28121.28121,0,0,0,.04866.1102.15735.15735,0,0,0,.10038.06154.18282.18282,0,0,0,.12307-.05183l.22039-.175q.05826-.03879.12307-.07769.12951-.07125.27211-.149a.67568.67568,0,0,1,.22683-.03895h.07769l.13606.026a.55026.55026,0,0,1,.29164.35634,1.6857,1.6857,0,0,1,.09721.473,2.66625,2.66625,0,0,1-.013.2852,1.509,1.509,0,0,1-.05837.26557,1.981,1.981,0,0,1-.22029.49895l-.11664.12962a.17283.17283,0,0,1-.10365.03884.155.155,0,0,1-.07779-.013.10087.10087,0,0,1-.08423-.11009,1.86368,1.86368,0,0,1,.026-.37587l.00644-.14893v-.23981l-.0324-.24615q-.01932-.175-.13606-.21385l-.08423-.00654a.42713.42713,0,0,0-.23971.07779l-.25269.20087a1.56682,1.56682,0,0,0-.34991.46,1.09981,1.09981,0,0,1-.38875.39529l-.1102.026a.21046.21046,0,0,1-.149-.07135.4363.4363,0,0,1-.13606-.33038l.01942-.162.04539-.29154.04539-.29808.01942-.162-.01942-.162a.17991.17991,0,0,0-.12962-.05826l-.10365.02586-.43414.31106q-.10371.08423-.20414.17173t-.22356.21058l-.40173.39519-.38875.38231a1.64105,1.64105,0,0,1-.26567.21385.82174.82174,0,0,1-.27211.12307l-.18788.01953a.34442.34442,0,0,1-.15548-.03895q-.11669-.03879-.11664-.26567l.00644-.12951c0-.03895.00211-.082.00644-.12962a.82578.82578,0,0,1,.026-.1426q.01947-.07109.04539-.14577.02581-.07441.06481-.15875l.09711-.25269.06481-.16846.23327-.56375a1.72728,1.72728,0,0,1,.35634-.56365.304.304,0,0,1,.22039-.09721.43141.43141,0,0,1,.14893.026.2232.2232,0,0,1,.12318.21374A.55752.55752,0,0,1,21.99026,37.88968Z" fill="#f6931e"/>
      <path d="M30.26449,38.38l-.02586.22134v.62318l.02586.86173a.1278.1278,0,0,1-.11009.13606l-.09721.026-.07779-.01932a.54418.54418,0,0,1-.1425-.10312.642.642,0,0,1-.175-.47678l-.01942-.29v-.67891a1.03623,1.03623,0,0,1,.01942-.18788c-.01288-.03884-.0323-.05837-.05805-.05837l-.05805.01953q-.46469.3887-.81951.74457a9.60367,9.60367,0,0,1-.80652.73412.86639.86639,0,0,1-.57431.21892l-.13553-.00644-.15485-.03895a.6335.6335,0,0,1-.35487-.25913.70707.70707,0,0,1-.113-.18472.59391.59391,0,0,1-.0419-.23,3.26983,3.26983,0,0,1,.02924-.486,2.0164,2.0164,0,0,1,.12635-.43086q.09706-.243.19116-.43414a3.9364,3.9364,0,0,1,.204-.36606.43691.43691,0,0,1,.36289-.20741l.10365.013a.35028.35028,0,0,1,.22029.23327.25342.25342,0,0,1-.013.1425l-.0647.12318-.1426.22673-.162.29808a1.93551,1.93551,0,0,0-.16846.57019.25579.25579,0,0,0,.1426.25924.37176.37176,0,0,0,.16846.03884l.12962-.01953a1.7089,1.7089,0,0,0,.45356-.416q.19427-.23417.42759-.46823.34341-.34436.55721-.533a7.2811,7.2811,0,0,1,.58318-.48755.63.63,0,0,1,.20087-.03251.4975.4975,0,0,1,.324.12371.39879.39879,0,0,1,.11664.29291l-.006.09774-.04148.23433Z" fill="#f6931e"/>
      <path d="M32.37681,37.88968l-.07779.149-.10365.20087a.64464.64464,0,0,0-.10365.29808.22787.22787,0,0,0,.00644.06481.21839.21839,0,0,0,.162.04528,1.31889,1.31889,0,0,0,.40173-.25913l.36933-.33048a2.05519,2.05519,0,0,1,.90068-.50538.8956.8956,0,0,1,.27211.0324.50217.50217,0,0,1,.11991.03557.78221.78221,0,0,1,.11991.07452.36468.36468,0,0,1,.14893.31106.92122.92122,0,0,0,.013.17817.28121.28121,0,0,0,.04866.1102.15735.15735,0,0,0,.10038.06154.18282.18282,0,0,0,.12307-.05183l.22039-.175q.05826-.03879.12307-.07769.12951-.07125.27211-.149a.67568.67568,0,0,1,.22683-.03895H35.798l.13606.026a.55026.55026,0,0,1,.29164.35634,1.6857,1.6857,0,0,1,.09721.473,2.66625,2.66625,0,0,1-.013.2852,1.509,1.509,0,0,1-.05837.26557,1.981,1.981,0,0,1-.22029.49895l-.11664.12962a.17283.17283,0,0,1-.10365.03884.155.155,0,0,1-.07779-.013.10087.10087,0,0,1-.08423-.11009,1.86368,1.86368,0,0,1,.026-.37587l.00644-.14893v-.23981l-.0324-.24615q-.01932-.175-.13606-.21385l-.08423-.00654a.42713.42713,0,0,0-.23971.07779l-.25269.20087a1.56682,1.56682,0,0,0-.34991.46,1.09981,1.09981,0,0,1-.38875.39529l-.1102.026a.21046.21046,0,0,1-.149-.07135.4363.4363,0,0,1-.13606-.33038l.01942-.162.04539-.29154.04539-.29808.01942-.162-.01942-.162a.17991.17991,0,0,0-.12962-.05826l-.10365.02586-.43414.31106q-.10371.08423-.20414.17173t-.22356.21058l-.40173.39519-.38875.38231a1.64105,1.64105,0,0,1-.26567.21385.82174.82174,0,0,1-.27211.12307l-.18788.01953a.34442.34442,0,0,1-.15548-.03895q-.11669-.03879-.11664-.26567l.00644-.12951c0-.03895.00211-.082.00644-.12962a.82578.82578,0,0,1,.026-.1426q.01947-.07109.04539-.14577.02581-.07441.06481-.15875l.09711-.25269.06481-.16846.23327-.56375a1.72728,1.72728,0,0,1,.35634-.56365.304.304,0,0,1,.22039-.09721.43141.43141,0,0,1,.14893.026.2232.2232,0,0,1,.12318.21374A.55752.55752,0,0,1,32.37681,37.88968Z" fill="#f6931e"/>
    </g>
    <polygon points="20.648 28.84 20.648 35.992 22.276 35.992 22.276 31.308 25.703 35.992 27.332 35.992 27.332 28.84 25.703 28.84 25.703 33.385 22.276 28.84 20.648 28.84" fill="#545454" fill-rule="evenodd"/>
    <path d="M32.43869,30.22863V28.84011m0,1.39113v-.0026C32.45083,30.22913,32.45377,30.22993,32.43869,30.23123Zm-.08571,4.3697-.71726-.0011V30.23257l.72919-.00123c.05891.00067.16926.00123.36008.00123a2.1857,2.1857,0,1,1,0,4.36719C32.52038,34.59976,32.40836,34.60033,32.353,34.60093Zm.08571,1.3913V34.60253c.01215-.00056.01509-.00143,0-.0027v.0027m0-5.7626H30.00741v7.1524h2.43128v-.00011l.023.00018c2.76076,0,4.20788-1.6011,4.20788-3.57625s-1.44711-3.57622-4.20788-3.57622l-.023.00017Z" fill="#545454" fill-rule="evenodd"/>
    <polygon points="15.861 27.358 17.998 28.706 17.998 40.077 15.861 40.813 15.861 27.358" fill="#545454" fill-rule="evenodd"/>
    <g>
      <path d="M21.99026,37.88968l-.07779.149-.10365.20087a.64464.64464,0,0,0-.10365.29808.22787.22787,0,0,0,.00644.06481.21839.21839,0,0,0,.162.04528,1.31889,1.31889,0,0,0,.40173-.25913l.36933-.33048a2.05519,2.05519,0,0,1,.90068-.50538.8956.8956,0,0,1,.27211.0324.50217.50217,0,0,1,.11991.03557.78221.78221,0,0,1,.11991.07452.36468.36468,0,0,1,.14893.31106.92122.92122,0,0,0,.013.17817.28121.28121,0,0,0,.04866.1102.15735.15735,0,0,0,.10038.06154.18282.18282,0,0,0,.12307-.05183l.22039-.175q.05826-.03879.12307-.07769.12951-.07125.27211-.149a.67568.67568,0,0,1,.22683-.03895h.07769l.13606.026a.55026.55026,0,0,1,.29164.35634,1.6857,1.6857,0,0,1,.09721.473,2.66625,2.66625,0,0,1-.013.2852,1.509,1.509,0,0,1-.05837.26557,1.981,1.981,0,0,1-.22029.49895l-.11664.12962a.17283.17283,0,0,1-.10365.03884.155.155,0,0,1-.07779-.013.10087.10087,0,0,1-.08423-.11009,1.86368,1.86368,0,0,1,.026-.37587l.00644-.14893v-.23981l-.0324-.24615q-.01932-.175-.13606-.21385l-.08423-.00654a.42713.42713,0,0,0-.23971.07779l-.25269.20087a1.56682,1.56682,0,0,0-.34991.46,1.09981,1.09981,0,0,1-.38875.39529l-.1102.026a.21046.21046,0,0,1-.149-.07135.4363.4363,0,0,1-.13606-.33038l.01942-.162.04539-.29154.04539-.29808.01942-.162-.01942-.162a.17991.17991,0,0,0-.12962-.05826l-.10365.02586-.43414.31106q-.10371.08423-.20414.17173t-.22356.21058l-.40173.39519-.38875.38231a1.64105,1.64105,0,0,1-.26567.21385.82174.82174,0,0,1-.27211.12307l-.18788.01953a.34442.34442,0,0,1-.15548-.03895q-.11669-.03879-.11664-.26567l.00644-.12951c0-.03895.00211-.082.00644-.12962a.82578.82578,0,0,1,.026-.1426q.01947-.07109.04539-.14577.02581-.07441.06481-.15875l.09711-.25269.06481-.16846.23327-.56375a1.72728,1.72728,0,0,1,.35634-.56365.304.304,0,0,1,.22039-.09721.43141.43141,0,0,1,.14893.026.2232.2232,0,0,1,.12318.21374A.55752.55752,0,0,1,21.99026,37.88968Z" fill="#f6931e"/>
      <path d="M30.26449,38.38l-.02586.22134v.62318l.02586.86173a.1278.1278,0,0,1-.11009.13606l-.09721.026-.07779-.01932a.54418.54418,0,0,1-.1425-.10312.642.642,0,0,1-.175-.47678l-.01942-.29v-.67891a1.03623,1.03623,0,0,1,.01942-.18788c-.01288-.03884-.0323-.05837-.05805-.05837l-.05805.01953q-.46469.3887-.81951.74457a9.60367,9.60367,0,0,1-.80652.73412.86639.86639,0,0,1-.57431.21892l-.13553-.00644-.15485-.03895a.6335.6335,0,0,1-.35487-.25913.70707.70707,0,0,1-.113-.18472.59391.59391,0,0,1-.0419-.23,3.26983,3.26983,0,0,1,.02924-.486,2.0164,2.0164,0,0,1,.12635-.43086q.09706-.243.19116-.43414a3.9364,3.9364,0,0,1,.204-.36606.43691.43691,0,0,1,.36289-.20741l.10365.013a.35028.35028,0,0,1,.22029.23327.25342.25342,0,0,1-.013.1425l-.0647.12318-.1426.22673-.162.29808a1.93551,1.93551,0,0,0-.16846.57019.25579.25579,0,0,0,.1426.25924.37176.37176,0,0,0,.16846.03884l.12962-.01953a1.7089,1.7089,0,0,0,.45356-.416q.19427-.23417.42759-.46823.34341-.34436.55721-.533a7.2811,7.2811,0,0,1,.58318-.48755.63.63,0,0,1,.20087-.03251.4975.4975,0,0,1,.324.12371.39879.39879,0,0,1,.11664.29291l-.006.09774-.04148.23433Z" fill="#f6931e"/>
      <path d="M32.37681,37.88968l-.07779.149-.10365.20087a.64464.64464,0,0,0-.10365.29808.22787.22787,0,0,0,.00644.06481.21839.21839,0,0,0,.162.04528,1.31889,1.31889,0,0,0,.40173-.25913l.36933-.33048a2.05519,2.05519,0,0,1,.90068-.50538.8956.8956,0,0,1,.27211.0324.50217.50217,0,0,1,.11991.03557.78221.78221,0,0,1,.11991.07452.36468.36468,0,0,1,.14893.31106.92122.92122,0,0,0,.013.17817.28121.28121,0,0,0,.04866.1102.15735.15735,0,0,0,.10038.06154.18282.18282,0,0,0,.12307-.05183l.22039-.175q.05826-.03879.12307-.07769.12951-.07125.27211-.149a.67568.67568,0,0,1,.22683-.03895H35.798l.13606.026a.55026.55026,0,0,1,.29164.35634,1.6857,1.6857,0,0,1,.09721.473,2.66625,2.66625,0,0,1-.013.2852,1.509,1.509,0,0,1-.05837.26557,1.981,1.981,0,0,1-.22029.49895l-.11664.12962a.17283.17283,0,0,1-.10365.03884.155.155,0,0,1-.07779-.013.10087.10087,0,0,1-.08423-.11009,1.86368,1.86368,0,0,1,.026-.37587l.00644-.14893v-.23981l-.0324-.24615q-.01932-.175-.13606-.21385l-.08423-.00654a.42713.42713,0,0,0-.23971.07779l-.25269.20087a1.56682,1.56682,0,0,0-.34991.46,1.09981,1.09981,0,0,1-.38875.39529l-.1102.026a.21046.21046,0,0,1-.149-.07135.4363.4363,0,0,1-.13606-.33038l.01942-.162.04539-.29154.04539-.29808.01942-.162-.01942-.162a.17991.17991,0,0,0-.12962-.05826l-.10365.02586-.43414.31106q-.10371.08423-.20414.17173t-.22356.21058l-.40173.39519-.38875.38231a1.64105,1.64105,0,0,1-.26567.21385.82174.82174,0,0,1-.27211.12307l-.18788.01953a.34442.34442,0,0,1-.15548-.03895q-.11669-.03879-.11664-.26567l.00644-.12951c0-.03895.00211-.082.00644-.12962a.82578.82578,0,0,1,.026-.1426q.01947-.07109.04539-.14577.02581-.07441.06481-.15875l.09711-.25269.06481-.16846.23327-.56375a1.72728,1.72728,0,0,1,.35634-.56365.304.304,0,0,1,.22039-.09721.43141.43141,0,0,1,.14893.026.2232.2232,0,0,1,.12318.21374A.55752.55752,0,0,1,32.37681,37.88968Z" fill="#f6931e"/>
    </g>
  </g>
</svg>
